<svg xmlns="http://www.w3.org/2000/svg" viewBox="0 0 1200 450">
  <defs>
    <style>
      .label { font-family: -apple-system, BlinkMacSystemFont, 'SF Pro Display', system-ui; font-size: 11px; fill: #e8e8e8; font-weight: 500; }
      .title { font-family: -apple-system, BlinkMacSystemFont, 'SF Pro Display', system-ui; font-size: 16px; fill: #ffffff; font-weight: 600; }
      .subtitle { font-family: -apple-system, BlinkMacSystemFont, 'SF Pro Text', system-ui; font-size: 10px; fill: #50C878; font-weight: 500; }
      .subtitle-warn { font-family: -apple-system, BlinkMacSystemFont, 'SF Pro Text', system-ui; font-size: 10px; fill: #E74C3C; font-weight: 500; }
    </style>
    
    <linearGradient id="glassCard" x1="0%" y1="0%" x2="0%" y2="100%">
      <stop offset="0%" style="stop-color:rgba(255,255,255,0.06);stop-opacity:1" />
      <stop offset="100%" style="stop-color:rgba(255,255,255,0.02);stop-opacity:1" />
    </linearGradient>
    
    <linearGradient id="borderShine" x1="0%" y1="0%" x2="100%" y2="100%">
      <stop offset="0%" style="stop-color:rgba(255,255,255,0.15);stop-opacity:1" />
      <stop offset="100%" style="stop-color:rgba(255,255,255,0.03);stop-opacity:1" />
    </linearGradient>
    
    <filter id="glow" x="-50%" y="-50%" width="200%" height="200%">
      <feGaussianBlur in="SourceAlpha" stdDeviation="6"/>
      <feOffset dx="0" dy="2" result="offsetblur"/>
      <feFlood flood-color="#4A90E2" flood-opacity="0.2"/>
      <feComposite in2="offsetblur" operator="in"/>
      <feMerge>
        <feMergeNode/>
        <feMergeNode in="SourceGraphic"/>
      </feMerge>
    </filter>
  </defs>
  
  <!-- Dark background with subtle gradient -->
  <rect width="1200" height="450" fill="url(#darkBg)"/>
  <linearGradient id="darkBg" x1="0%" y1="0%" x2="0%" y2="100%">
    <stop offset="0%" style="stop-color:#0a0a0a;stop-opacity:1" />
    <stop offset="100%" style="stop-color:#1a1a2e;stop-opacity:1" />
  </linearGradient>
  
  <!-- Treemap Card -->
  <g transform="translate(30, 40)">
    <rect x="0" y="0" width="350" height="360" rx="16" fill="url(#glassCard)" stroke="url(#borderShine)" stroke-width="1" filter="url(#glow)"/>
    
    <text x="175" y="30" class="title" text-anchor="middle">Treemap</text>
    
    <!-- Inner visualization area -->
    <g transform="translate(20, 50)">
      <!-- Largest block - Documents -->
      <rect x="0" y="0" width="200" height="180" rx="8" fill="#4A90E2" opacity="0.85"/>
      <text x="100" y="95" class="label" text-anchor="middle" fill="#fff">Documents</text>
      <text x="100" y="110" class="label" text-anchor="middle" fill="rgba(255,255,255,0.7)" font-size="10">45 GB</text>
      
      <!-- Photos -->
      <rect x="210" y="0" width="100" height="85" rx="8" fill="#50C878" opacity="0.85"/>
      <text x="260" y="45" class="label" text-anchor="middle" fill="#fff" font-size="10">Photos 28GB</text>
      
      <!-- Videos -->
      <rect x="210" y="95" width="100" height="85" rx="8" fill="#F5A623" opacity="0.85"/>
      <text x="260" y="140" class="label" text-anchor="middle" fill="#fff" font-size="10">Videos 22GB</text>
      
      <!-- Small items -->
      <rect x="0" y="190" width="95" height="80" rx="8" fill="#E74C3C" opacity="0.75"/>
      <text x="47" y="235" class="label" text-anchor="middle" fill="#fff" font-size="9">Apps</text>
      
      <rect x="105" y="190" width="95" height="80" rx="8" fill="#9B59B6" opacity="0.75"/>
      <text x="152" y="235" class="label" text-anchor="middle" fill="#fff" font-size="9">Music</text>
      
      <rect x="210" y="190" width="100" height="80" rx="8" fill="#1ABC9C" opacity="0.75"/>
      <text x="260" y="235" class="label" text-anchor="middle" fill="#fff" font-size="9">Other</text>
    </g>
    
    <text x="175" y="345" class="subtitle" text-anchor="middle">✓ Clear size hierarchy</text>
  </g>
  
  <!-- Icicle Chart Card -->
  <g transform="translate(425, 40)">
    <rect x="0" y="0" width="350" height="360" rx="16" fill="url(#glassCard)" stroke="url(#borderShine)" stroke-width="1" filter="url(#glow)"/>
    
    <text x="175" y="30" class="title" text-anchor="middle">Icicle Chart</text>
    
    <!-- Inner visualization area -->
    <g transform="translate(20, 50)">
      <!-- Level 1: Root -->
      <rect x="0" y="0" width="310" height="40" rx="6" fill="rgba(52,73,94,0.8)"/>
      <text x="155" y="25" class="label" text-anchor="middle" fill="#fff">/Users/Home (120 GB)</text>
      
      <!-- Level 2: Main folders -->
      <rect x="0" y="50" width="155" height="40" rx="6" fill="#4A90E2" opacity="0.85"/>
      <text x="77" y="75" class="label" text-anchor="middle" fill="#fff" font-size="10">Documents 45GB</text>
      
      <rect x="165" y="50" width="95" height="40" rx="6" fill="#50C878" opacity="0.85"/>
      <text x="212" y="75" class="label" text-anchor="middle" fill="#fff" font-size="10">Photos 28GB</text>
      
      <rect x="270" y="50" width="40" height="40" rx="6" fill="#F5A623" opacity="0.85"/>
      <text x="290" y="68" class="label" text-anchor="middle" fill="#fff" font-size="9">Vid</text>
      <text x="290" y="80" class="label" text-anchor="middle" fill="#fff" font-size="9">22GB</text>
      
      <!-- Level 3: Subfolders -->
      <rect x="0" y="100" width="80" height="35" rx="6" fill="rgba(74,144,226,0.65)"/>
      <text x="40" y="122" class="label" text-anchor="middle" fill="#fff" font-size="9">Work 20GB</text>
      
      <rect x="90" y="100" width="65" height="35" rx="6" fill="rgba(74,144,226,0.55)"/>
      <text x="122" y="122" class="label" text-anchor="middle" fill="#fff" font-size="9">Projects</text>
      
      <rect x="165" y="100" width="50" height="35" rx="6" fill="rgba(80,200,120,0.65)"/>
      <text x="190" y="122" class="label" text-anchor="middle" fill="#fff" font-size="8">2024</text>
      
      <rect x="225" y="100" width="35" height="35" rx="6" fill="rgba(80,200,120,0.5)"/>
      <text x="242" y="122" class="label" text-anchor="middle" fill="#fff" font-size="8">2023</text>
      
      <!-- Level 4: Deeper -->
      <rect x="0" y="145" width="40" height="30" rx="6" fill="rgba(74,144,226,0.4)"/>
      <text x="20" y="165" class="label" text-anchor="middle" fill="#e8e8e8" font-size="8">Q4</text>
      
      <rect x="50" y="145" width="30" height="30" rx="6" fill="rgba(74,144,226,0.35)"/>
      <text x="65" y="165" class="label" text-anchor="middle" fill="#e8e8e8" font-size="8">Q3</text>
    </g>
    
    <text x="175" y="345" class="subtitle" text-anchor="middle">✓ Left-to-right flow</text>
  </g>
  
  <!-- Sunburst Card -->
  <g transform="translate(820, 40)">
    <rect x="0" y="0" width="350" height="360" rx="16" fill="url(#glassCard)" stroke="url(#borderShine)" stroke-width="1" filter="url(#glow)"/>
    
    <text x="175" y="30" class="title" text-anchor="middle">Sunburst</text>
    
    <!-- Inner visualization area -->
    <g transform="translate(175, 180)">
      <!-- Center circle -->
      <circle cx="0" cy="0" r="35" fill="rgba(52,73,94,0.8)"/>
      <text x="0" y="5" class="label" text-anchor="middle" fill="#fff" font-size="10">Root</text>
      
      <!-- Inner ring wedges -->
      <path d="M 0,-35 A 35,35 0 0,1 24.7,-24.7 L 42.4,-42.4 A 60,60 0 0,0 0,-60 Z" fill="#4A90E2" opacity="0.8"/>
      <text x="-15" y="-42" class="label" text-anchor="middle" fill="#fff" font-size="8" transform="rotate(-30, -15, -42)">Docs</text>
      
      <path d="M 24.7,24.7 A 35,35 0 0,1 0,35 L 0,60 A 60,60 0 0,0 42.4,42.4 Z" fill="#50C878" opacity="0.8"/>
      <text x="20" y="48" class="label" text-anchor="middle" fill="#fff" font-size="8" transform="rotate(45, 20, 48)">Photos</text>
      
      <path d="M 0,35 A 35,35 0 0,1 -24.7,24.7 L -42.4,42.4 A 60,60 0 0,0 0,60 Z" fill="#F5A623" opacity="0.8"/>
      
      <path d="M -24.7,-24.7 A 35,35 0 0,1 0,-35 L 0,-60 A 60,60 0 0,0 -42.4,-42.4 Z" fill="#E74C3C" opacity="0.7"/>
      
      <!-- Outer ring -->
      <path d="M 0,-60 A 60,60 0 0,1 42.4,-42.4 L 56.6,-56.6 A 80,80 0 0,0 0,-80 Z" fill="rgba(74,144,226,0.5)"/>
      <path d="M 42.4,42.4 A 60,60 0 0,1 0,60 L 0,80 A 80,80 0 0,0 56.6,56.6 Z" fill="rgba(80,200,120,0.5)"/>
      <path d="M 0,60 A 60,60 0 0,1 -42.4,42.4 L -56.6,56.6 A 80,80 0 0,0 0,80 Z" fill="rgba(245,166,35,0.5)"/>
      <path d="M -42.4,-42.4 A 60,60 0 0,1 0,-60 L 0,-80 A 80,80 0 0,0 -56.6,-56.6 Z" fill="rgba(231,76,60,0.5)"/>
      
      <!-- Warning indicators -->
      <line x1="50" y1="-70" x2="85" y2="-95" stroke="rgba(231,76,60,0.5)" stroke-width="1" stroke-dasharray="2,2"/>
      <line x1="50" y1="70" x2="85" y2="95" stroke="rgba(231,76,60,0.5)" stroke-width="1" stroke-dasharray="2,2"/>
    </g>
    
    <text x="265" y="80" class="subtitle-warn" text-anchor="start" font-size="9">Curved text</text>
    <text x="265" y="280" class="subtitle-warn" text-anchor="start" font-size="9">Hard to compare</text>
    
    <text x="175" y="345" class="subtitle-warn" text-anchor="middle">✗ Radial confusion</text>
  </g>
</svg>
